<svg width="512" height="512" viewBox="0 0 512 512" fill="none" xmlns="http://www.w3.org/2000/svg">
  <defs>
    <linearGradient id="silx-gold" x1="160" y1="60" x2="368" y2="420" gradientUnits="userSpaceOnUse">
      <stop offset="0" stop-color="#DCC298"/>
      <stop offset="0.5" stop-color="#C9A86C"/>
      <stop offset="1" stop-color="#8B6F47"/>
    </linearGradient>
  </defs>

  <!-- 背景:Silxine 官网墨色 -->
  <rect width="512" height="512" rx="96" fill="#2C2825"/>

  <!-- 丝绸缎带 S(与应用内 Logo 同一笔形) -->
  <g transform="translate(76 44) scale(5.6)">
    <path d="M45.5 16.5 C41 10, 25 8.5, 20 15.5 C15 22.5, 22 27.5, 31 31 C40 34.5, 48 38.5, 44.5 47 C41 55.5, 24.5 56.5, 18.5 50"
          stroke="#0F0D0B" stroke-opacity="0.35" stroke-width="7" stroke-linecap="round" transform="translate(1.4 1.6)"/>
    <path d="M45.5 16.5 C41 10, 25 8.5, 20 15.5 C15 22.5, 22 27.5, 31 31 C40 34.5, 48 38.5, 44.5 47 C41 55.5, 24.5 56.5, 18.5 50"
          stroke="url(#silx-gold)" stroke-width="7" stroke-linecap="round"/>
    <path d="M45.5 16.5 C41 10, 25 8.5, 20 15.5 C15 22.5, 22 27.5, 31 31 C40 34.5, 48 38.5, 44.5 47 C41 55.5, 24.5 56.5, 18.5 50"
          stroke="#FBF5EA" stroke-opacity="0.5" stroke-width="1.6" stroke-linecap="round" transform="translate(-1 -1.2)"/>
  </g>

  <!-- 品牌字 -->
  <text x="50%" y="426" text-anchor="middle" font-family="Newsreader, Georgia, 'Times New Roman', serif" font-size="58" font-weight="500" letter-spacing="0.18em" fill="#F5EFE7">SILXINE</text>
  <text x="50%" y="462" text-anchor="middle" font-family="Montserrat, 'Helvetica Neue', sans-serif" font-size="17" font-weight="400" letter-spacing="0.42em" fill="#C9A86C">22 MOMME SILK</text>
</svg>
